Motion_mu04
version=1
nRows=9
nColumns=43
inDegrees=yes
endheader
time	pelvis_tilt	pelvis_list	pelvis_rotation	pelvis_tx	pelvis_ty	pelvis_tz	hip_flexion_r	hip_adduction_r	hip_rotation_r	knee_angle_r	ankle_angle_r	subtalar_angle_r	mtp_angle_r	hip_flexion_l	hip_adduction_l	hip_rotation_l	knee_angle_l	ankle_angle_l	subtalar_angle_l	mtp_angle_l	lumbar_extension	lumbar_bending	lumbar_rotation	neck_flexion	neck_lateral_bending	neck_rotation	arm_flex_r	arm_add_r	arm_rot_r	elbow_flex_r	pro_sup_r	wrist_flex_r	wrist_dev_r	hand_finger_flex_r	arm_flex_l	arm_add_l	arm_rot_l	elbow_flex_l	pro_sup_l	wrist_flex_l	wrist_dev_l	hand_finger_flex_l
      2.32500000	     -9.20981930	      6.26251674	    -86.98960197	     -0.05780508	      1.85671593	      0.91151061	     59.66828641	      1.56708895	     -4.31066491	    -41.81238670	    -27.19769136	     -7.48596524	     -1.62603264	     51.79317035	     -3.72473881	      3.02118141	    -34.96312649	    -28.62691127	      3.62341352	      5.62143988	    -68.36051432	      3.14942934	      1.23678648	      3.53027040	     -4.09272789	      2.58273996	   -239.22282766	   -157.25091716	   -209.07225888	    141.19226022	    162.01970529	    -60.80612105	    -24.99999983	     77.84033889	    -71.52883296	    -14.69852251	    -32.97305511	    139.78969889	    164.87233466	    -90.00021046	    -18.14024321	     71.21732387
      2.32750000	     -9.18663860	      6.30695519	    -86.87416619	     -0.05782409	      1.85724124	      0.91259361	     59.50434775	      1.46371865	     -4.36959000	    -41.51378778	    -27.26388198	     -7.56043825	     -1.66183184	     51.61661895	     -3.60394407	      3.04219603	    -34.70846363	    -28.84179597	      3.69083236	      5.60470213	    -68.29060274	      3.23379678	      1.08929692	      3.75099382	     -4.12309073	      2.59911373	   -238.87807882	   -157.20728702	   -208.71497095	    140.81464314	    162.15089173	    -60.82648008	    -24.99999983	     77.84582024	    -71.40981847	    -14.77440156	    -32.86039097	    139.40098809	    164.89081621	    -90.00021046	    -18.12607943	     71.17435630
      2.33000000	     -9.19723965	      6.30010612	    -86.87997972	     -0.05784225	      1.85710472	      0.91312360	     59.51320229	      1.48037575	     -4.37712470	    -41.49462015	    -27.26675601	     -7.56132905	     -1.66319453	     51.55261705	     -3.56731523	      3.03485817	    -34.72543903	    -28.85545969	      3.69650109	      5.60345049	    -68.23648581	      3.24941168	      1.09402308	      3.76292579	     -4.12279895	      2.60042179	   -238.87892259	   -157.20807112	   -208.70093995	    140.80339971	    162.15564659	    -60.82695280	    -24.99999983	     77.84606538	    -71.41092243	    -14.76789136	    -32.85980266	    139.39684356	    164.89016186	    -90.00021046	    -18.12483635	     71.17258193
      2.33250000	     -9.18690177	      6.36067495	    -86.73304194	     -0.05788904	      1.85777471	      0.91422811	     59.32785926	      1.37130029	     -4.42864380	    -41.11949548	    -27.36950736	     -7.62989095	     -1.71488801	     51.35247009	     -3.43832535	      3.09130140	    -34.36593159	    -29.14600520	      3.80979115	      5.57413207	    -68.16122838	      3.36027157	      0.92373665	      3.99000378	     -4.17441127	      2.64933733	   -238.46669537	   -157.16127818	   -208.20346837	    140.39939309	    162.34131935	    -60.83366054	    -24.99999983	     77.84668051	    -71.21352066	    -14.75692219	    -32.70741120	    139.02783079	    164.89736145	    -90.00021046	    -18.10140789	     71.11730967
      2.33500000	     -9.20058848	      6.34837739	    -86.74079404	     -0.05789472	      1.85764602	      0.91473980	     59.34059389	      1.38369951	     -4.43389483	    -41.10118233	    -27.37239260	     -7.62982170	     -1.71619649	     51.29357194	     -3.40921009	      3.08590260	    -34.38406040	    -29.15878271	      3.81539899	      5.57292051	    -68.11005040	      3.37499850	      0.92485724	      4.00010063	     -4.17330519	      2.65101168	   -238.46375927	   -157.16738165	   -208.19510763	    140.38984235	    162.34531658	    -60.83407632	    -24.99999983	     77.84669971	    -71.21748314	    -14.75024632	    -32.70741991	    139.02224328	    164.89673020	    -90.00021046	    -18.10016975	     71.11602163
      2.33750000	     -9.21210156	      6.41177244	    -86.59657952	     -0.05802258	      1.85830258	      0.91584382	     59.17253208	      1.31099058	     -4.44026152	    -40.74715457	    -27.50165122	     -7.63450116	     -1.76988204	     51.13165507	     -3.31723473	      3.15843094	    -34.06389974	    -29.45628371	      3.97772848	      5.54459974	    -68.02198093	      3.48079413	      0.77005500	      4.20940574	     -4.20538823	      2.72897502	   -238.02453906	   -157.15191566	   -207.73720278	    139.97283149	    162.54555992	    -60.82257531	    -24.99999983	     77.84110175	    -71.04518077	    -14.72267062	    -32.57162769	    138.64271353	    164.90024511	    -90.00021046	    -18.07416177	     71.06607486
      2.34000000	     -9.21571636	      6.44882774	    -86.48917658	     -0.05799817	      1.85871741	      0.91661162	     59.06739254	      1.22275650	     -4.51013771	    -40.47505531	    -27.65274511	     -7.62918304	     -1.83746264	     50.96699512	     -3.23085688	      3.19857263	    -33.73875236	    -29.81498787	      4.19687193	      5.51761199	    -67.96200612	      3.56512072	      0.62653767	      4.34610139	     -4.18581855	      2.86703215	   -237.73640181	   -157.09561514	   -207.42000121	    139.72033001	    162.79039999	    -60.87967835	    -24.99999983	     77.81354561	    -70.95640112	    -14.57205342	    -32.52141693	    138.48213113	    164.89474621	    -90.00021046	    -18.04292904	     70.97368682
      2.34250000	     -9.22213278	      6.43855405	    -86.47615162	     -0.05804175	      1.85867368	      0.91731199	     59.04490747	      1.21968096	     -4.50848958	    -40.41952218	    -27.67583109	     -7.61983959	     -1.84927674	     50.90131025	     -3.19374930	      3.20291402	    -33.73026069	    -29.86757391	      4.23745226	      5.51654810	    -67.89765974	      3.59562978	      0.62206502	      4.39696799	     -4.16555906	      2.89521149	   -237.68672657	   -157.17582651	   -207.34284504	    139.58419714	    162.83698456	    -60.87671250	    -24.99999983	     77.80943246	    -70.98565433	    -14.54097012	    -32.49483689	    138.37664833	    164.90506389	    -90.00021046	    -18.04346777	     70.96026983
      2.34500000	     -9.24834211	      6.51870203	    -86.39346076	     -0.05812266	      1.85910762	      0.91817995	     58.97717874	      1.18768198	     -4.49926645	    -40.15342748	    -27.73534198	     -7.56364780	     -1.88614388	     50.81886545	     -3.14834733	      3.24822442	    -33.49515788	    -30.02907570	      4.43883373	      5.51792471	    -67.77498116	      3.66362107	      0.50459761	      4.54916626	     -4.15512479	      3.00531072	   -237.31984611	   -157.12955375	   -206.97072008	    139.30409182	    163.03392659	    -60.88214034	    -24.99999983	     77.78261634	    -70.80173240	    -14.54519773	    -32.40424282	    138.12753672	    164.93391266	    -90.00021046	    -18.04788438	     70.89769286
